Coordinates
version=1
nRows=49
nColumns=12
inDegrees=yes

Units are S.I. units (second, meters, Newtons, ...)
Angles are in degrees

endheader
time	SC_y	SC_z	SC_x	AC_y	AC_z	AC_x	GH_y	GH_z	GH_yy	EL_x	PS_y
       0.0              -56.27          13.77           52.3          33.52          8.122          3.024          61.92          -11.2          83.78          95.16          41.22
   0.02235              -56.27          13.77          52.29          33.52          8.118          3.023          61.92         -11.19          83.74          95.15          41.22
    0.0447              -56.27          13.77          52.29          33.52          8.115          3.021          61.92         -11.18           83.7          95.14          41.22
   0.06705              -56.27          13.77          52.28          33.53          8.111           3.02          61.91         -11.17          83.66          95.12          41.21
    0.0894              -56.27          13.77          52.27          33.53          8.107          3.019          61.91         -11.16          83.61          95.11          41.21
    0.1118              -56.27          13.77          52.27          33.54          8.102          3.017          61.91         -11.15          83.56          95.09          41.21
    0.1341              -56.27          13.77          52.26          33.54          8.098          3.016           61.9         -11.14          83.51          95.07           41.2
    0.1565              -56.27          13.78          52.25          33.55          8.093          3.014           61.9         -11.13          83.45          95.06           41.2
    0.1788              -56.27          13.78          52.24          33.55          8.088          3.012          61.89         -11.12          83.39          95.04           41.2
    0.2012              -56.26          13.78          52.23          33.56          8.082          3.011          61.89          -11.1          83.33          95.02          41.19
    0.2235              -56.26          13.78          52.22          33.57          8.076          3.009          61.88         -11.09          83.26          94.99          41.19
    0.2459              -56.26          13.78          52.21          33.57          8.069          3.006          61.87         -11.07          83.19          94.97          41.18
    0.2682              -56.26          13.78           52.2          33.58          8.062          3.004          61.87         -11.06          83.11          94.94          41.18
    0.2906              -56.26          13.78          52.18          33.59          8.054          3.002          61.86         -11.04          83.02          94.92          41.17
    0.3129              -56.26          13.78          52.17           33.6          8.046          2.999          61.85         -11.02          82.93          94.89          41.16
    0.3353              -56.26          13.78          52.15          33.61          8.037          2.996          61.84          -11.0          82.82          94.85          41.16
    0.3576              -56.25          13.79          52.13          33.62          8.027          2.993          61.83         -10.98          82.71          94.82          41.15
      0.38              -56.25          13.79          52.12          33.63          8.017          2.989          61.82         -10.95          82.59          94.78          41.14
    0.4023              -56.25          13.79           52.1          33.64          8.005          2.985          61.81         -10.93          82.46          94.74          41.13
    0.4247              -56.25          13.79          52.07          33.65          7.992          2.981           61.8          -10.9          82.32          94.69          41.12
     0.447              -56.24          13.79          52.05          33.67          7.978          2.976          61.78         -10.86          82.16          94.64          41.11
    0.4694              -56.24          13.79          52.02          33.68          7.963          2.971          61.77         -10.83          81.99          94.59           41.1
    0.4917              -56.24           13.8          51.99           33.7          7.946          2.966          61.75         -10.79          81.79          94.52          41.09
    0.5141              -56.23           13.8          51.96          33.72          7.927          2.959          61.73         -10.75          81.58          94.46          41.07
    0.5364              -56.23           13.8          51.92          33.74          7.906          2.953          61.71          -10.7          81.35          94.38          41.05
    0.5588              -56.22          13.81          51.88          33.77          7.883          2.945          61.69         -10.64          81.08          94.29          41.04
    0.5811              -56.22          13.81          51.83          33.79          7.857          2.936          61.66         -10.58          80.79           94.2          41.02
    0.6035              -56.21          13.82          51.78          33.82          7.827          2.926          61.63         -10.52          80.45          94.09          40.99
    0.6258              -56.21          13.82          51.72          33.86          7.794          2.915           61.6         -10.44          80.08          93.97          40.97
    0.6482               -56.2          13.83          51.66           33.9          7.756          2.903          61.56         -10.35          79.65          93.84          40.94
    0.6705              -56.19          13.83          51.58          33.94          7.713          2.889          61.52         -10.25          79.17          93.68           40.9
    0.6929              -56.18          13.84          51.49          33.99          7.664          2.872          61.47         -10.14          78.61           93.5          40.87
    0.7152              -56.17          13.85          51.39          34.05          7.607          2.854          61.41         -10.01          77.96          93.29          40.82
    0.7376              -56.15          13.86          51.27          34.12           7.54          2.832          61.35         -9.852          77.21          93.05          40.77
    0.7599              -56.14          13.87          51.14           34.2          7.463          2.806          61.27         -9.672          76.34          92.77          40.71
    0.7823              -56.12          13.88          50.98           34.3          7.371          2.776          61.18         -9.461          75.31          92.44          40.64
    0.8046               -56.1           13.9          50.78          34.41          7.262           2.74          61.07         -9.209          74.08          92.04          40.55
     0.827              -56.07          13.92          50.55          34.54          7.132          2.697          60.94         -8.908          72.61          91.57          40.45
    0.8493              -56.04          13.94          50.28          34.71          6.974          2.645          60.79         -8.543          70.83           91.0          40.33
    0.8717               -56.0          13.97          49.94          34.91          6.782          2.581           60.6         -8.098          68.65           90.3          40.18
     0.894              -55.95          14.01          49.52          35.15          6.544          2.502          60.36         -7.548          65.97          89.44          39.99
    0.9164              -55.89          14.05          48.99          35.46          6.247          2.404          60.07         -6.863          62.62          88.36          39.76
    0.9387              -55.82          14.11          48.33          35.85          5.874          2.281           59.7         -5.999           58.4          87.01          39.47
    0.9611              -55.72          14.18           47.5          36.34          5.399          2.124          59.23         -4.902          53.04          85.28           39.1
    0.9834               -55.6          14.27          46.42          36.97          4.791          1.923          58.62         -3.497          46.18          83.08          38.63
     1.006              -55.44          14.38          45.05          37.78          4.011          1.665          57.85         -1.694          37.38          80.25          38.02
     1.028              -55.23          14.53          43.29          38.82          3.015          1.336          56.86         0.6094          26.13          76.64          37.25
     1.051              -54.98          14.72          41.08          40.12          1.762         0.9222          55.62          3.505          11.99          72.09          36.27
     1.073              -54.67          14.95          38.38           41.7         0.2351         0.4178          54.11          7.034         -5.244          66.55          35.08
